<svg xmlns="http://www.w3.org/2000/svg" xmlns:xlink="http://www.w3.org/1999/xlink" width="500" zoomAndPan="magnify" viewBox="0 0 375 374.999991" height="500" preserveAspectRatio="xMidYMid meet" version="1.0"><rect x="-37.5" width="450" fill="#ffffff" y="-37.499999" height="449.999989" fill-opacity="1"/><rect x="-37.5" width="450" fill="#ffffff" y="-37.499999" height="449.999989" fill-opacity="1"/><path fill="#000000" d="M 332.8125 296.875 C 331.558594 298.109375 330.226562 299.253906 328.8125 300.304688 C 327.398438 301.351562 325.917969 302.300781 324.371094 303.140625 C 322.828125 303.984375 321.230469 304.714844 319.582031 305.335938 C 317.933594 305.957031 316.253906 306.457031 314.535156 306.84375 C 312.816406 307.226562 311.078125 307.492188 309.324219 307.632812 C 307.570312 307.777344 305.8125 307.796875 304.054688 307.691406 C 302.300781 307.589844 300.558594 307.363281 298.832031 307.019531 C 297.105469 306.671875 295.410156 306.207031 293.75 305.625 L 257.03125 342.34375 C 256.785156 342.601562 256.511719 342.832031 256.21875 343.035156 C 255.921875 343.238281 255.613281 343.410156 255.285156 343.546875 C 254.953125 343.6875 254.613281 343.792969 254.265625 343.867188 C 253.914062 343.9375 253.5625 343.972656 253.203125 343.972656 C 252.84375 343.972656 252.492188 343.9375 252.140625 343.867188 C 251.792969 343.792969 251.453125 343.6875 251.121094 343.546875 C 250.792969 343.410156 250.484375 343.238281 250.1875 343.035156 C 249.894531 342.832031 249.621094 342.601562 249.375 342.34375 L 233.75 326.71875 C 233.511719 326.460938 233.296875 326.183594 233.109375 325.886719 C 232.921875 325.585938 232.765625 325.273438 232.636719 324.945312 C 232.507812 324.621094 232.410156 324.28125 232.34375 323.9375 C 232.277344 323.589844 232.246094 323.242188 232.246094 322.890625 C 232.246094 322.539062 232.277344 322.191406 232.34375 321.84375 C 232.410156 321.5 232.507812 321.160156 232.636719 320.835938 C 232.765625 320.507812 232.921875 320.195312 233.109375 319.894531 C 233.296875 319.597656 233.511719 319.320312 233.75 319.0625 L 270.625 282.34375 C 269.988281 280.574219 269.484375 278.765625 269.121094 276.917969 C 268.757812 275.070312 268.53125 273.207031 268.449219 271.328125 C 268.367188 269.449219 268.425781 267.570312 268.625 265.699219 C 268.828125 263.828125 269.167969 261.984375 269.648438 260.164062 C 270.128906 258.34375 270.742188 256.570312 271.488281 254.84375 C 272.238281 253.117188 273.109375 251.453125 274.109375 249.859375 C 275.109375 248.265625 276.222656 246.753906 277.449219 245.328125 C 278.679688 243.898438 280.003906 242.574219 281.433594 241.347656 C 282.863281 240.121094 284.375 239.011719 285.96875 238.011719 C 287.566406 237.015625 289.226562 236.144531 290.957031 235.398438 C 292.683594 234.652344 294.457031 234.039062 296.277344 233.5625 C 298.101562 233.085938 299.945312 232.746094 301.816406 232.546875 C 303.6875 232.351562 305.566406 232.292969 307.445312 232.378906 C 309.324219 232.464844 311.1875 232.6875 313.035156 233.054688 C 314.878906 233.421875 316.6875 233.925781 318.457031 234.566406 C 320.226562 235.207031 321.941406 235.976562 323.59375 236.875 L 298.75 262.5 L 314.375 278.125 L 339.6875 252.8125 C 340.617188 254.578125 341.402344 256.40625 342.039062 258.296875 C 342.675781 260.1875 343.160156 262.117188 343.488281 264.085938 C 343.816406 266.054688 343.984375 268.035156 343.996094 270.03125 C 344.003906 272.027344 343.855469 274.011719 343.550781 275.984375 C 343.242188 277.953125 342.777344 279.890625 342.160156 281.785156 C 341.542969 283.683594 340.777344 285.519531 339.867188 287.296875 C 338.953125 289.070312 337.90625 290.761719 336.722656 292.367188 C 335.539062 293.976562 334.238281 295.476562 332.8125 296.875 Z M 343.75 125 L 343.75 215 C 340.878906 213.070312 337.882812 211.363281 334.757812 209.878906 C 331.632812 208.394531 328.414062 207.152344 325.105469 206.144531 C 321.796875 205.136719 318.429688 204.382812 315.007812 203.875 C 311.585938 203.371094 308.148438 203.121094 304.6875 203.125 C 297.824219 203.144531 291.105469 204.136719 284.53125 206.09375 L 284.53125 145.15625 L 260.3125 145.15625 L 260.3125 218.75 C 258.289062 220.398438 256.363281 222.152344 254.53125 224.011719 C 252.703125 225.875 250.984375 227.832031 249.371094 229.886719 C 247.761719 231.9375 246.269531 234.074219 244.894531 236.292969 C 243.523438 238.511719 242.277344 240.800781 241.15625 243.160156 C 240.039062 245.519531 239.054688 247.929688 238.207031 250.398438 C 237.355469 252.867188 236.644531 255.375 236.074219 257.917969 C 235.503906 260.464844 235.078125 263.035156 234.792969 265.632812 C 234.507812 268.226562 234.371094 270.828125 234.375 273.4375 C 234.214844 276.042969 234.214844 278.644531 234.375 281.25 L 62.5 281.25 C 61.476562 281.25 60.457031 281.199219 59.4375 281.097656 C 58.417969 281 57.40625 280.847656 56.402344 280.648438 C 55.398438 280.449219 54.40625 280.203125 53.429688 279.90625 C 52.449219 279.605469 51.488281 279.261719 50.542969 278.871094 C 49.59375 278.480469 48.671875 278.042969 47.769531 277.558594 C 46.867188 277.078125 45.988281 276.550781 45.136719 275.984375 C 44.289062 275.414062 43.464844 274.804688 42.675781 274.15625 C 41.882812 273.507812 41.125 272.820312 40.402344 272.097656 C 39.679688 271.375 38.992188 270.617188 38.34375 269.824219 C 37.695312 269.035156 37.085938 268.210938 36.515625 267.363281 C 35.949219 266.511719 35.421875 265.632812 34.941406 264.730469 C 34.457031 263.828125 34.019531 262.90625 33.628906 261.957031 C 33.238281 261.011719 32.894531 260.050781 32.59375 259.070312 C 32.296875 258.09375 32.050781 257.101562 31.851562 256.097656 C 31.652344 255.09375 31.5 254.082031 31.402344 253.0625 C 31.300781 252.042969 31.25 251.023438 31.25 250 L 31.25 125 C 31.25 123.976562 31.300781 122.957031 31.402344 121.9375 C 31.5 120.917969 31.652344 119.90625 31.851562 118.902344 C 32.050781 117.898438 32.296875 116.90625 32.59375 115.929688 C 32.894531 114.949219 33.238281 113.988281 33.628906 113.042969 C 34.019531 112.09375 34.457031 111.171875 34.941406 110.269531 C 35.421875 109.367188 35.949219 108.488281 36.515625 107.636719 C 37.085938 106.789062 37.695312 105.964844 38.34375 105.175781 C 38.992188 104.382812 39.679688 103.625 40.402344 102.902344 C 41.125 102.179688 41.882812 101.492188 42.675781 100.84375 C 43.464844 100.195312 44.289062 99.585938 45.136719 99.015625 C 45.988281 98.449219 46.867188 97.921875 47.769531 97.441406 C 48.671875 96.957031 49.59375 96.519531 50.542969 96.128906 C 51.488281 95.738281 52.449219 95.394531 53.429688 95.09375 C 54.40625 94.796875 55.398438 94.550781 56.402344 94.351562 C 57.40625 94.152344 58.417969 94 59.4375 93.902344 C 60.457031 93.800781 61.476562 93.75 62.5 93.75 L 312.5 93.75 C 313.523438 93.75 314.542969 93.800781 315.5625 93.902344 C 316.582031 94 317.59375 94.152344 318.597656 94.351562 C 319.601562 94.550781 320.59375 94.796875 321.570312 95.09375 C 322.550781 95.394531 323.511719 95.738281 324.457031 96.128906 C 325.40625 96.519531 326.328125 96.957031 327.230469 97.441406 C 328.132812 97.921875 329.011719 98.449219 329.863281 99.015625 C 330.710938 99.585938 331.535156 100.195312 332.324219 100.84375 C 333.117188 101.492188 333.875 102.179688 334.597656 102.902344 C 335.320312 103.625 336.007812 104.382812 336.65625 105.175781 C 337.304688 105.964844 337.914062 106.789062 338.484375 107.636719 C 339.050781 108.488281 339.578125 109.367188 340.058594 110.269531 C 340.542969 111.171875 340.980469 112.09375 341.371094 113.042969 C 341.761719 113.988281 342.105469 114.949219 342.40625 115.929688 C 342.703125 116.90625 342.949219 117.898438 343.148438 118.902344 C 343.347656 119.90625 343.5 120.917969 343.597656 121.9375 C 343.699219 122.957031 343.75 123.976562 343.75 125 Z M 171.875 234.375 L 142.03125 144.84375 L 109.375 144.84375 L 80.78125 234.375 L 107.34375 234.375 L 111.875 217.65625 L 140.625 217.65625 L 145.15625 234.375 Z M 246.40625 173.59375 C 246.535156 171.625 246.441406 169.667969 246.125 167.71875 C 245.808594 165.773438 245.277344 163.886719 244.53125 162.058594 C 243.789062 160.234375 242.847656 158.511719 241.714844 156.898438 C 240.582031 155.285156 239.28125 153.820312 237.8125 152.5 C 236.003906 151.164062 234.09375 149.996094 232.078125 148.996094 C 230.0625 148 227.972656 147.1875 225.8125 146.5625 C 223.652344 145.933594 221.457031 145.503906 219.21875 145.265625 C 216.984375 145.03125 214.742188 144.996094 212.5 145.15625 L 181.25 145.15625 L 181.25 234.375 L 205.3125 234.375 L 205.3125 204.84375 L 212.1875 204.84375 C 217.5625 204.9375 222.769531 204.050781 227.8125 202.1875 C 231.820312 200.683594 235.308594 198.390625 238.28125 195.3125 C 240.925781 192.414062 242.800781 189.078125 243.90625 185.3125 C 245.273438 181.527344 246.003906 177.621094 246.09375 173.59375 Z M 132.34375 183.28125 L 130.46875 176.40625 L 128.125 167.34375 C 128.125 164.0625 126.875 161.5625 126.40625 159.53125 C 126.019531 162.058594 125.496094 164.558594 124.84375 167.03125 C 124.84375 170 123.59375 172.96875 122.8125 175.9375 C 122.03125 178.90625 121.5625 181.25 120.9375 183.28125 L 117.1875 197.8125 L 135.78125 197.8125 Z M 219.6875 167.65625 C 218.644531 166.664062 217.4375 165.933594 216.074219 165.46875 C 214.707031 165.007812 213.308594 164.847656 211.875 165 L 205.625 165 L 205.625 185.46875 L 210.46875 185.46875 C 212.472656 185.515625 214.402344 185.152344 216.25 184.375 C 218.011719 183.664062 219.417969 182.519531 220.46875 180.9375 C 221.703125 178.921875 222.277344 176.734375 222.1875 174.375 C 222.1875 173 221.886719 171.695312 221.28125 170.460938 C 220.679688 169.226562 219.835938 168.1875 218.75 167.34375 Z M 219.6875 167.65625 " fill-opacity="1" fill-rule="nonzero"/></svg>